<svg xmlns="http://www.w3.org/2000/svg" viewBox="0 0 1200 760" role="img" aria-labelledby="title desc">
  <title id="title">Emergency Plumbing Problem Service Illustration</title>
  <desc id="desc">Blue gradient illustration with plumbing pipes, leak droplet, and emergency wrench icon.</desc>
  <defs>
    <linearGradient id="bg" x1="0" y1="0" x2="1" y2="1">
      <stop offset="0%" stop-color="#e9f4ff"/>
      <stop offset="100%" stop-color="#cfe6ff"/>
    </linearGradient>
    <linearGradient id="pipe" x1="0" y1="0" x2="1" y2="0">
      <stop offset="0%" stop-color="#1c6fd1"/>
      <stop offset="100%" stop-color="#0a4ca1"/>
    </linearGradient>
  </defs>

  <rect width="1200" height="760" rx="36" fill="url(#bg)"/>

  <g opacity="0.22">
    <circle cx="1020" cy="120" r="90" fill="#6faef5"/>
    <circle cx="190" cy="620" r="120" fill="#80bbff"/>
  </g>

  <g transform="translate(220 140)">
    <rect x="0" y="110" width="560" height="78" rx="34" fill="url(#pipe)"/>
    <rect x="244" y="0" width="78" height="430" rx="34" fill="url(#pipe)"/>

    <rect x="530" y="99" width="140" height="100" rx="20" fill="#0f58b8"/>
    <rect x="-110" y="99" width="140" height="100" rx="20" fill="#0f58b8"/>

    <circle cx="283" cy="149" r="52" fill="#ffffff"/>
    <circle cx="283" cy="149" r="28" fill="#93c3ff"/>

    <path d="M520 265c-36 49-54 79-54 106 0 36 30 66 66 66s66-30 66-66c0-27-18-57-54-106z" fill="#2a79dc"/>
    <path d="M548 341c-9 12-14 20-14 28a17 17 0 1 0 34 0c0-8-5-16-14-28z" fill="#b9dcff"/>
  </g>

  <g transform="translate(780 290)">
    <rect x="0" y="0" width="290" height="240" rx="24" fill="#ffffff" opacity="0.84"/>
    <path d="M88 170c32-10 58-36 68-68l43-9 24 24-11 42c-10 31-35 57-67 67l-22 6-40-40 5-22z" fill="#0a58b5"/>
    <circle cx="177" cy="82" r="26" fill="#7cb4f7"/>
    <rect x="56" y="36" width="64" height="14" rx="7" fill="#0a58b5"/>
  </g>

  <text x="84" y="104" fill="#0a4ca1" font-size="40" font-family="Avenir Next, Nunito Sans, Segoe UI, sans-serif" font-weight="700">Emergency Plumbing Response</text>
</svg>
