<svg width="1200" height="720" viewBox="0 0 1200 720" fill="none" xmlns="http://www.w3.org/2000/svg" role="img" aria-labelledby="title desc">
  <title id="title">Emergency water damage restoration team</title>
  <desc id="desc">Abstract water restoration illustration with flowing contours and structural lines.</desc>
  <defs>
    <linearGradient id="bg" x1="0" y1="0" x2="1200" y2="720" gradientUnits="userSpaceOnUse">
      <stop stop-color="#03111f" />
      <stop offset="1" stop-color="#0e2a45" />
    </linearGradient>
    <linearGradient id="wave" x1="0" y1="0" x2="1100" y2="0" gradientUnits="userSpaceOnUse">
      <stop stop-color="#27b6ff" stop-opacity="0.4" />
      <stop offset="1" stop-color="#79d7ff" stop-opacity="0.05" />
    </linearGradient>
  </defs>
  <rect width="1200" height="720" fill="url(#bg)" rx="28" />
  <g opacity="0.6">
    <path d="M0 510C170 450 260 560 420 520C590 478 700 352 870 390C1010 422 1090 510 1200 472V720H0V510Z" fill="url(#wave)" />
    <path d="M0 580C200 520 330 650 510 620C670 592 810 460 980 510C1062 536 1127 596 1200 560V720H0V580Z" fill="#39bffd" fill-opacity="0.18" />
  </g>
  <g stroke="#8ddfff" stroke-opacity="0.45" stroke-width="2">
    <path d="M200 146V438" />
    <path d="M200 438H460" />
    <path d="M460 438V268" />
    <path d="M460 268H700" />
    <path d="M700 268V500" />
    <path d="M700 500H1010" />
  </g>
  <circle cx="306" cy="260" r="90" fill="#5cc9ff" fill-opacity="0.18" />
  <circle cx="810" cy="196" r="120" fill="#42b8f8" fill-opacity="0.14" />
  <rect x="728" y="330" width="220" height="130" rx="18" fill="#0a1a2b" fill-opacity="0.62" stroke="#7fd8ff" stroke-opacity="0.42" />
  <path d="M760 396H910" stroke="#9ce6ff" stroke-width="8" stroke-linecap="round" />
  <path d="M760 364H872" stroke="#9ce6ff" stroke-width="8" stroke-linecap="round" opacity="0.7" />
</svg>
