<svg width="1200" height="760" viewBox="0 0 1200 760" fill="none" xmlns="http://www.w3.org/2000/svg" role="img" aria-labelledby="title desc">
  <title id="title">Structural drying service illustration</title>
  <desc id="desc">Illustration of industrial drying equipment and airflow used after water damage restoration.</desc>
  <defs>
    <linearGradient id="bg" x1="0" y1="0" x2="1200" y2="760" gradientUnits="userSpaceOnUse">
      <stop stop-color="#e6f1ff"/>
      <stop offset="1" stop-color="#d9e9ff"/>
    </linearGradient>
    <linearGradient id="air" x1="190" y1="560" x2="1060" y2="560" gradientUnits="userSpaceOnUse">
      <stop stop-color="#2d98ff" stop-opacity="0"/>
      <stop offset="0.5" stop-color="#2d98ff" stop-opacity="0.52"/>
      <stop offset="1" stop-color="#2d98ff" stop-opacity="0"/>
    </linearGradient>
  </defs>
  <rect width="1200" height="760" rx="26" fill="url(#bg)"/>
  <rect x="90" y="470" width="1020" height="180" rx="30" fill="#eef6ff" stroke="#c0deff"/>
  <rect x="150" y="280" width="250" height="250" rx="30" fill="#ffffff" stroke="#bfdcff"/>
  <circle cx="275" cy="405" r="86" fill="#f4f9ff" stroke="#c8e2ff"/>
  <circle cx="275" cy="405" r="56" fill="#e8f3ff" stroke="#b6d6ff"/>
  <path d="M275 349V461" stroke="#62a9ff" stroke-width="12" stroke-linecap="round"/>
  <path d="M219 405H331" stroke="#62a9ff" stroke-width="12" stroke-linecap="round"/>
  <rect x="470" y="230" width="630" height="300" rx="28" fill="#ffffff" stroke="#b8d8ff"/>
  <rect x="540" y="300" width="500" height="160" rx="18" fill="#edf6ff" stroke="#c7e2ff"/>
  <path d="M580 356H980" stroke="#7db8ff" stroke-width="12" stroke-linecap="round"/>
  <path d="M580 410H930" stroke="#7db8ff" stroke-width="12" stroke-linecap="round"/>
  <path d="M190 560C340 500 460 620 620 580C740 550 870 500 1060 560" stroke="url(#air)" stroke-width="18" stroke-linecap="round"/>
  <path d="M190 610C330 570 470 675 615 646C770 615 890 566 1060 620" stroke="url(#air)" stroke-width="18" stroke-linecap="round"/>
</svg>
